<svg xmlns="http://www.w3.org/2000/svg" xmlns:xlink="http://www.w3.org/1999/xlink" width="3980" zoomAndPan="magnify" viewBox="0 0 2985 719.999996" height="960" preserveAspectRatio="xMidYMid meet" version="1.0"><defs><g/><clipPath id="cc2a2ca77c"><path d="M 189 200 L 468 200 L 468 520 L 189 520 Z M 189 200 " clip-rule="nonzero"/></clipPath><clipPath id="d5d225c107"><path d="M 259.519531 159.640625 L 537.488281 321.679688 L 398.488281 560.125 L 120.519531 398.085938 Z M 259.519531 159.640625 " clip-rule="nonzero"/></clipPath><clipPath id="d4c6907b6e"><path d="M 259.519531 159.640625 L 537.347656 321.597656 L 398.164062 560.355469 L 120.335938 398.398438 Z M 259.519531 159.640625 " clip-rule="nonzero"/></clipPath><clipPath id="196c981ba9"><path d="M 467.753906 440.976562 L 328.707031 519.867188 L 189.792969 438.886719 L 189.929688 279.019531 L 328.976562 200.128906 L 467.890625 281.109375 Z M 467.753906 440.976562 " clip-rule="nonzero"/></clipPath><clipPath id="8bbe2fe9d6"><path d="M 237 254 L 421 254 L 421 466 L 237 466 Z M 237 254 " clip-rule="nonzero"/></clipPath><clipPath id="86a55cd97f"><path d="M 283.144531 227.921875 L 466.511719 334.816406 L 374.726562 492.265625 L 191.359375 385.371094 Z M 283.144531 227.921875 " clip-rule="nonzero"/></clipPath><clipPath id="ce56326d10"><path d="M 283.144531 227.921875 L 466.289062 334.683594 L 374.539062 492.074219 L 191.394531 385.3125 Z M 283.144531 227.921875 " clip-rule="nonzero"/></clipPath><clipPath id="b4b4a65e4d"><path d="M 420.414062 413.378906 L 328.753906 465.382812 L 237.179688 412.003906 L 237.269531 306.617188 L 328.929688 254.613281 L 420.503906 307.996094 Z M 420.414062 413.378906 " clip-rule="nonzero"/></clipPath></defs><g clip-path="url(#cc2a2ca77c)"><g clip-path="url(#d5d225c107)"><g clip-path="url(#d4c6907b6e)"><g clip-path="url(#196c981ba9)"><path stroke-linecap="butt" transform="matrix(0.647944, 0.377715, -0.377715, 0.647944, 259.51989, 159.641439)" fill="none" stroke-linejoin="miter" d="M 428.779684 184.242005 L 321.586181 368.485293 L 107.193148 368.483878 L 0.000741388 184.24105 L 107.194245 -0.00223833 L 321.587278 -0.000822846 Z M 428.779684 184.242005 " stroke="#5a25e7" stroke-width="88" stroke-opacity="1" stroke-miterlimit="4"/></g></g></g></g><g fill="#000000" fill-opacity="1"><g transform="translate(1887.255735, 433.160414)"><g><path d="M 2.171875 0 L 22.921875 0 L 34.96875 -34.578125 L 97.78125 -34.578125 L 109.84375 0 L 130.578125 0 L 77.828125 -147.171875 L 54.921875 -147.171875 Z M 41.09375 -52.34375 L 66.375 -125.25 L 91.65625 -52.34375 Z M 41.09375 -52.34375 "/></g></g></g><g fill="#000000" fill-opacity="1"><g transform="translate(2020.005849, 433.160414)"><g><path d="M 63.609375 2.375 C 70.585938 2.375 77.140625 1.125 83.265625 -1.375 C 89.390625 -3.882812 94.691406 -7.3125 99.171875 -11.65625 C 103.648438 -16 107.007812 -20.875 109.25 -26.28125 L 92.84375 -34.578125 C 90.34375 -28.773438 86.554688 -24.128906 81.484375 -20.640625 C 76.410156 -17.148438 70.453125 -15.40625 63.609375 -15.40625 C 57.160156 -15.40625 51.332031 -17.050781 46.125 -20.34375 C 40.925781 -23.632812 36.8125 -28.144531 33.78125 -33.875 C 30.75 -39.601562 29.234375 -46.023438 29.234375 -53.140625 C 29.234375 -60.515625 30.75 -67.03125 33.78125 -72.6875 C 36.8125 -78.351562 40.925781 -82.832031 46.125 -86.125 C 51.332031 -89.414062 57.160156 -91.0625 63.609375 -91.0625 C 70.328125 -91.0625 76.253906 -89.316406 81.390625 -85.828125 C 86.523438 -82.335938 90.34375 -77.828125 92.84375 -72.296875 L 109.25 -80.203125 C 107.007812 -85.734375 103.613281 -90.671875 99.0625 -95.015625 C 94.519531 -99.367188 89.21875 -102.757812 83.15625 -105.1875 C 77.101562 -107.625 70.585938 -108.84375 63.609375 -108.84375 C 53.203125 -108.84375 43.945312 -106.4375 35.84375 -101.625 C 27.75 -96.820312 21.394531 -90.238281 16.78125 -81.875 C 12.175781 -73.519531 9.875 -64.007812 9.875 -53.34375 C 9.875 -42.800781 12.175781 -33.316406 16.78125 -24.890625 C 21.394531 -16.460938 27.75 -9.8125 35.84375 -4.9375 C 43.945312 -0.0625 53.203125 2.375 63.609375 2.375 Z M 63.609375 2.375 "/></g></g></g><g fill="#000000" fill-opacity="1"><g transform="translate(2139.125348, 433.160414)"><g><path d="M 45.4375 2.375 C 53.207031 2.375 60.1875 0.894531 66.375 -2.0625 C 72.5625 -5.03125 77.566406 -8.953125 81.390625 -13.828125 L 81.390625 0 L 99.359375 0 L 99.359375 -72.296875 C 99.359375 -79.546875 97.613281 -85.898438 94.125 -91.359375 C 90.632812 -96.828125 85.796875 -101.109375 79.609375 -104.203125 C 73.421875 -107.296875 66.242188 -108.84375 58.078125 -108.84375 C 51.753906 -108.84375 45.695312 -107.722656 39.90625 -105.484375 C 34.113281 -103.242188 29.039062 -100.179688 24.6875 -96.296875 C 20.34375 -92.410156 17.1875 -88.035156 15.21875 -83.171875 L 31.21875 -74.875 C 33.457031 -79.875 36.878906 -83.953125 41.484375 -87.109375 C 46.097656 -90.273438 51.5 -91.859375 57.6875 -91.859375 C 64.664062 -91.859375 70.296875 -90.046875 74.578125 -86.421875 C 78.859375 -82.804688 81 -78.097656 81 -72.296875 L 81 -67.359375 L 44.640625 -61.4375 C 32.660156 -59.457031 23.867188 -55.472656 18.265625 -49.484375 C 12.671875 -43.492188 9.875 -36.285156 9.875 -27.859375 C 9.875 -18.898438 13.195312 -11.617188 19.84375 -6.015625 C 26.5 -0.421875 35.03125 2.375 45.4375 2.375 Z M 29.234375 -28.453125 C 29.234375 -33.054688 30.78125 -36.9375 33.875 -40.09375 C 36.96875 -43.257812 41.941406 -45.4375 48.796875 -46.625 L 81 -51.953125 L 81 -45.234375 C 81 -39.304688 79.613281 -33.90625 76.84375 -29.03125 C 74.082031 -24.164062 70.195312 -20.316406 65.1875 -17.484375 C 60.1875 -14.648438 54.328125 -13.234375 47.609375 -13.234375 C 42.335938 -13.234375 37.957031 -14.679688 34.46875 -17.578125 C 30.976562 -20.472656 29.234375 -24.097656 29.234375 -28.453125 Z M 29.234375 -28.453125 "/></g></g></g><g fill="#000000" fill-opacity="1"><g transform="translate(2252.713598, 433.160414)"><g><path d="M 62.625 2.375 C 70.519531 2.375 77.726562 0.828125 84.25 -2.265625 C 90.769531 -5.367188 96.003906 -9.816406 99.953125 -15.609375 L 99.953125 0 L 117.9375 0 L 117.9375 -149.546875 L 99.359375 -149.546875 L 99.359375 -92.25 C 95.273438 -97.519531 90.070312 -101.601562 83.75 -104.5 C 77.4375 -107.394531 70.394531 -108.84375 62.625 -108.84375 C 52.613281 -108.84375 43.625 -106.40625 35.65625 -101.53125 C 27.6875 -96.664062 21.394531 -90.050781 16.78125 -81.6875 C 12.175781 -73.320312 9.875 -63.804688 9.875 -53.140625 C 9.875 -42.609375 12.175781 -33.160156 16.78125 -24.796875 C 21.394531 -16.429688 27.6875 -9.8125 35.65625 -4.9375 C 43.625 -0.0625 52.613281 2.375 62.625 2.375 Z M 64.203125 -15.40625 C 57.484375 -15.40625 51.488281 -17.050781 46.21875 -20.34375 C 40.957031 -23.632812 36.8125 -28.144531 33.78125 -33.875 C 30.75 -39.601562 29.234375 -46.023438 29.234375 -53.140625 C 29.234375 -60.378906 30.75 -66.863281 33.78125 -72.59375 C 36.8125 -78.320312 40.992188 -82.832031 46.328125 -86.125 C 51.660156 -89.414062 57.617188 -91.0625 64.203125 -91.0625 C 70.921875 -91.0625 76.910156 -89.382812 82.171875 -86.03125 C 87.441406 -82.675781 91.625 -78.164062 94.71875 -72.5 C 97.8125 -66.832031 99.359375 -60.378906 99.359375 -53.140625 C 99.359375 -46.023438 97.8125 -39.601562 94.71875 -33.875 C 91.625 -28.144531 87.441406 -23.632812 82.171875 -20.34375 C 76.910156 -17.050781 70.921875 -15.40625 64.203125 -15.40625 Z M 64.203125 -15.40625 "/></g></g></g><g fill="#000000" fill-opacity="1"><g transform="translate(2384.871036, 433.160414)"><g><path d="M 63.21875 2.375 C 74.144531 2.375 83.625 -0.191406 91.65625 -5.328125 C 99.695312 -10.460938 105.363281 -16.71875 108.65625 -24.09375 L 93.234375 -32 C 90.210938 -26.863281 86.265625 -22.648438 81.390625 -19.359375 C 76.515625 -16.066406 70.519531 -14.421875 63.40625 -14.421875 C 57.476562 -14.421875 51.976562 -15.769531 46.90625 -18.46875 C 41.84375 -21.164062 37.695312 -25.015625 34.46875 -30.015625 C 31.238281 -35.023438 29.492188 -40.957031 29.234375 -47.8125 L 110.625 -47.8125 C 111.28125 -51.363281 111.609375 -54.65625 111.609375 -57.6875 C 111.609375 -66.507812 109.632812 -74.804688 105.6875 -82.578125 C 101.738281 -90.347656 96.039062 -96.664062 88.59375 -101.53125 C 81.15625 -106.40625 72.171875 -108.84375 61.640625 -108.84375 C 51.753906 -108.84375 42.925781 -106.472656 35.15625 -101.734375 C 27.394531 -96.992188 21.238281 -90.441406 16.6875 -82.078125 C 12.144531 -73.710938 9.875 -64.195312 9.875 -53.53125 C 9.875 -42.863281 12.175781 -33.316406 16.78125 -24.890625 C 21.394531 -16.460938 27.71875 -9.8125 35.75 -4.9375 C 43.789062 -0.0625 52.945312 2.375 63.21875 2.375 Z M 61.640625 -92.453125 C 67.035156 -92.453125 71.972656 -91.234375 76.453125 -88.796875 C 80.929688 -86.359375 84.550781 -82.96875 87.3125 -78.625 C 90.082031 -74.28125 91.53125 -69.273438 91.65625 -63.609375 L 29.625 -63.609375 C 30.945312 -72.566406 34.632812 -79.613281 40.6875 -84.75 C 46.75 -89.882812 53.734375 -92.453125 61.640625 -92.453125 Z M 61.640625 -92.453125 "/></g></g></g><g fill="#000000" fill-opacity="1"><g transform="translate(2506.163525, 433.160414)"><g><path d="M 14.21875 0 L 32.59375 0 L 32.59375 -63.015625 C 32.59375 -71.710938 34.960938 -78.5625 39.703125 -83.5625 C 44.441406 -88.5625 50.367188 -91.0625 57.484375 -91.0625 C 64.722656 -91.0625 70.613281 -88.59375 75.15625 -83.65625 C 79.707031 -78.71875 81.984375 -71.835938 81.984375 -63.015625 L 81.984375 0 L 100.546875 0 L 100.546875 -63.015625 C 100.546875 -71.710938 102.882812 -78.5625 107.5625 -83.5625 C 112.238281 -88.5625 118.195312 -91.0625 125.4375 -91.0625 C 132.550781 -91.0625 138.410156 -88.59375 143.015625 -83.65625 C 147.628906 -78.71875 149.9375 -71.835938 149.9375 -63.015625 L 149.9375 0 L 168.5 0 L 168.5 -68.9375 C 168.5 -76.582031 166.722656 -83.398438 163.171875 -89.390625 C 159.617188 -95.378906 154.84375 -100.117188 148.84375 -103.609375 C 142.851562 -107.097656 136.171875 -108.84375 128.796875 -108.84375 C 121.691406 -108.84375 115.207031 -107.195312 109.34375 -103.90625 C 103.476562 -100.613281 98.835938 -95.804688 95.421875 -89.484375 C 92.253906 -95.410156 87.675781 -100.117188 81.6875 -103.609375 C 75.695312 -107.097656 69.078125 -108.84375 61.828125 -108.84375 C 55.503906 -108.84375 49.742188 -107.492188 44.546875 -104.796875 C 39.347656 -102.097656 35.234375 -98.242188 32.203125 -93.234375 L 32.203125 -106.484375 L 14.21875 -106.484375 Z M 14.21875 0 "/></g></g></g><g fill="#000000" fill-opacity="1"><g transform="translate(2686.521947, 433.160414)"><g><path d="M 19.953125 43.453125 C 26.929688 43.453125 32.890625 42.066406 37.828125 39.296875 C 42.765625 36.535156 46.976562 32.816406 50.46875 28.140625 C 53.957031 23.472656 56.820312 18.304688 59.0625 12.640625 L 107.078125 -106.484375 L 86.71875 -106.484375 L 54.515625 -23.3125 L 22.125 -106.484375 L 2.171875 -106.484375 L 44.453125 0.203125 L 41.28125 7.90625 C 38.382812 14.488281 35.320312 19.160156 32.09375 21.921875 C 28.875 24.691406 24.171875 26.078125 17.984375 26.078125 C 15.867188 26.078125 13.722656 25.910156 11.546875 25.578125 C 9.378906 25.253906 7.570312 24.957031 6.125 24.6875 L 6.125 41.09375 C 8.226562 42.007812 10.460938 42.628906 12.828125 42.953125 C 15.203125 43.285156 17.578125 43.453125 19.953125 43.453125 Z M 19.953125 43.453125 "/></g></g></g><g fill="#000000" fill-opacity="1"><g transform="translate(483.915904, 433.160414)"><g><path d="M 13.03125 0 L 61.046875 0 C 76.972656 0 90.796875 -3.160156 102.515625 -9.484375 C 114.242188 -15.804688 123.332031 -24.53125 129.78125 -35.65625 C 136.238281 -46.78125 139.46875 -59.457031 139.46875 -73.6875 C 139.46875 -87.90625 136.238281 -100.546875 129.78125 -111.609375 C 123.332031 -122.671875 114.242188 -131.363281 102.515625 -137.6875 C 90.796875 -144.007812 76.972656 -147.171875 61.046875 -147.171875 L 13.03125 -147.171875 Z M 43.65625 -26.671875 L 43.65625 -120.5 L 61.828125 -120.5 C 71.441406 -120.5 79.738281 -118.585938 86.71875 -114.765625 C 93.695312 -110.953125 99.128906 -105.554688 103.015625 -98.578125 C 106.898438 -91.597656 108.84375 -83.300781 108.84375 -73.6875 C 108.84375 -64.207031 106.898438 -55.941406 103.015625 -48.890625 C 99.128906 -41.847656 93.695312 -36.382812 86.71875 -32.5 C 79.738281 -28.613281 71.441406 -26.671875 61.828125 -26.671875 Z M 43.65625 -26.671875 "/></g></g></g><g fill="#000000" fill-opacity="1"><g transform="translate(629.901507, 433.160414)"><g><path d="M 62.8125 2.375 C 73.875 2.375 83.554688 -0.0234375 91.859375 -4.828125 C 100.160156 -9.640625 105.957031 -16 109.25 -23.90625 L 85.53125 -35.15625 C 83.425781 -31.46875 80.492188 -28.570312 76.734375 -26.46875 C 72.984375 -24.363281 68.476562 -23.3125 63.21875 -23.3125 C 55.96875 -23.3125 50.035156 -25.351562 45.421875 -29.4375 C 40.816406 -33.519531 38.125 -38.921875 37.34375 -45.640625 L 112.796875 -45.640625 C 113.328125 -47.085938 113.691406 -48.832031 113.890625 -50.875 C 114.085938 -52.914062 114.1875 -54.988281 114.1875 -57.09375 C 114.1875 -67.101562 112.109375 -76.09375 107.953125 -84.0625 C 103.804688 -92.03125 97.78125 -98.382812 89.875 -103.125 C 81.976562 -107.863281 72.300781 -110.234375 60.84375 -110.234375 C 50.570312 -110.234375 41.351562 -107.796875 33.1875 -102.921875 C 25.019531 -98.046875 18.53125 -91.394531 13.71875 -82.96875 C 8.914062 -74.539062 6.515625 -64.925781 6.515625 -54.125 C 6.515625 -43.71875 8.816406 -34.234375 13.421875 -25.671875 C 18.035156 -17.117188 24.554688 -10.304688 32.984375 -5.234375 C 41.421875 -0.160156 51.363281 2.375 62.8125 2.375 Z M 60.84375 -86.53125 C 66.90625 -86.53125 71.910156 -84.75 75.859375 -81.1875 C 79.804688 -77.632812 82.109375 -73.023438 82.765625 -67.359375 L 37.921875 -67.359375 C 39.378906 -73.546875 42.113281 -78.285156 46.125 -81.578125 C 50.144531 -84.878906 55.050781 -86.53125 60.84375 -86.53125 Z M 60.84375 -86.53125 "/></g></g></g><g fill="#000000" fill-opacity="1"><g transform="translate(750.601375, 433.160414)"><g><path d="M 63.8125 2.375 C 71.976562 2.375 79.484375 0.957031 86.328125 -1.875 C 93.171875 -4.707031 99.03125 -8.625 103.90625 -13.625 C 108.78125 -18.632812 112.207031 -24.300781 114.1875 -30.625 L 88.5 -41.875 C 86.65625 -36.476562 83.5625 -32.195312 79.21875 -29.03125 C 74.875 -25.875 69.738281 -24.296875 63.8125 -24.296875 C 56.039062 -24.296875 49.648438 -27.0625 44.640625 -32.59375 C 39.640625 -38.125 37.140625 -45.238281 37.140625 -53.9375 C 37.140625 -62.625 39.640625 -69.734375 44.640625 -75.265625 C 49.648438 -80.796875 56.039062 -83.5625 63.8125 -83.5625 C 69.601562 -83.5625 74.703125 -81.976562 79.109375 -78.8125 C 83.523438 -75.65625 86.65625 -71.378906 88.5 -65.984375 L 114.1875 -77.046875 C 112.070312 -83.765625 108.578125 -89.59375 103.703125 -94.53125 C 98.835938 -99.46875 92.976562 -103.316406 86.125 -106.078125 C 79.28125 -108.847656 71.84375 -110.234375 63.8125 -110.234375 C 53.007812 -110.234375 43.257812 -107.796875 34.5625 -102.921875 C 25.875 -98.046875 19.023438 -91.359375 14.015625 -82.859375 C 9.015625 -74.367188 6.515625 -64.789062 6.515625 -54.125 C 6.515625 -43.457031 9.050781 -33.84375 14.125 -25.28125 C 19.195312 -16.726562 26.046875 -9.976562 34.671875 -5.03125 C 43.296875 -0.09375 53.007812 2.375 63.8125 2.375 Z M 63.8125 2.375 "/></g></g></g><g fill="#000000" fill-opacity="1"><g transform="translate(871.301242, 433.160414)"><g><path d="M 10.859375 -117.546875 L 40.5 -117.546875 L 40.5 -147.171875 L 10.859375 -147.171875 Z M 10.859375 0 L 40.5 0 L 40.5 -107.859375 L 10.859375 -107.859375 Z M 10.859375 0 "/></g></g></g><g fill="#000000" fill-opacity="1"><g transform="translate(922.66288, 433.160414)"><g><path d="M 53.140625 2.375 C 65.648438 2.375 75.722656 -0.71875 83.359375 -6.90625 C 91.003906 -13.101562 94.828125 -21.207031 94.828125 -31.21875 C 94.828125 -38.988281 92.453125 -45.539062 87.703125 -50.875 C 82.960938 -56.207031 76.117188 -60.1875 67.171875 -62.8125 L 49.984375 -67.953125 C 42.210938 -70.191406 38.328125 -73.421875 38.328125 -77.640625 C 38.328125 -80.398438 39.410156 -82.570312 41.578125 -84.15625 C 43.753906 -85.738281 46.753906 -86.53125 50.578125 -86.53125 C 55.835938 -86.53125 60.539062 -85.175781 64.6875 -82.46875 C 68.84375 -79.769531 71.710938 -76.179688 73.296875 -71.703125 L 95.21875 -81.984375 C 91.925781 -90.941406 86.296875 -97.890625 78.328125 -102.828125 C 70.359375 -107.765625 61.109375 -110.234375 50.578125 -110.234375 C 42.535156 -110.234375 35.421875 -108.816406 29.234375 -105.984375 C 23.046875 -103.148438 18.238281 -99.226562 14.8125 -94.21875 C 11.394531 -89.21875 9.6875 -83.359375 9.6875 -76.640625 C 9.6875 -69.003906 12.054688 -62.390625 16.796875 -56.796875 C 21.535156 -51.203125 28.316406 -47.148438 37.140625 -44.640625 L 55.515625 -39.515625 C 62.617188 -37.535156 66.171875 -34.375 66.171875 -30.03125 C 66.171875 -23.570312 61.828125 -20.34375 53.140625 -20.34375 C 47.347656 -20.34375 42.078125 -21.988281 37.328125 -25.28125 C 32.585938 -28.570312 28.835938 -33.117188 26.078125 -38.921875 L 4.34375 -28.640625 C 7.507812 -19.160156 13.46875 -11.617188 22.21875 -6.015625 C 30.976562 -0.421875 41.285156 2.375 53.140625 2.375 Z M 53.140625 2.375 "/></g></g></g><g fill="#000000" fill-opacity="1"><g transform="translate(1024.398407, 433.160414)"><g><path d="M 10.859375 -117.546875 L 40.5 -117.546875 L 40.5 -147.171875 L 10.859375 -147.171875 Z M 10.859375 0 L 40.5 0 L 40.5 -107.859375 L 10.859375 -107.859375 Z M 10.859375 0 "/></g></g></g><g fill="#000000" fill-opacity="1"><g transform="translate(1075.760072, 433.160414)"><g><path d="M 64.40625 2.375 C 75.070312 2.375 84.75 -0.0625 93.4375 -4.9375 C 102.132812 -9.8125 109.082031 -16.492188 114.28125 -24.984375 C 119.476562 -33.484375 122.078125 -43.132812 122.078125 -53.9375 C 122.078125 -64.863281 119.476562 -74.539062 114.28125 -82.96875 C 109.082031 -91.394531 102.132812 -98.046875 93.4375 -102.921875 C 84.75 -107.796875 75.070312 -110.234375 64.40625 -110.234375 C 53.738281 -110.234375 44.023438 -107.796875 35.265625 -102.921875 C 26.503906 -98.046875 19.519531 -91.394531 14.3125 -82.96875 C 9.113281 -74.539062 6.515625 -64.863281 6.515625 -53.9375 C 6.515625 -43.132812 9.113281 -33.484375 14.3125 -24.984375 C 19.519531 -16.492188 26.503906 -9.8125 35.265625 -4.9375 C 44.023438 -0.0625 53.738281 2.375 64.40625 2.375 Z M 64.40625 -24.296875 C 56.363281 -24.296875 49.804688 -27.0625 44.734375 -32.59375 C 39.671875 -38.125 37.140625 -45.238281 37.140625 -53.9375 C 37.140625 -62.488281 39.671875 -69.5625 44.734375 -75.15625 C 49.804688 -80.757812 56.363281 -83.5625 64.40625 -83.5625 C 72.4375 -83.5625 78.953125 -80.757812 83.953125 -75.15625 C 88.960938 -69.5625 91.46875 -62.488281 91.46875 -53.9375 C 91.46875 -45.238281 88.960938 -38.125 83.953125 -32.59375 C 78.953125 -27.0625 72.4375 -24.296875 64.40625 -24.296875 Z M 64.40625 -24.296875 "/></g></g></g><g fill="#000000" fill-opacity="1"><g transform="translate(1204.361729, 433.160414)"><g><path d="M 10.859375 0 L 40.5 0 L 40.5 -63.015625 C 40.5 -69.203125 42.34375 -74.171875 46.03125 -77.921875 C 49.71875 -81.679688 54.457031 -83.5625 60.25 -83.5625 C 66.039062 -83.5625 70.78125 -81.679688 74.46875 -77.921875 C 78.15625 -74.171875 80 -69.203125 80 -63.015625 L 80 0 L 109.640625 0 L 109.640625 -69.34375 C 109.640625 -77.507812 107.925781 -84.648438 104.5 -90.765625 C 101.070312 -96.890625 96.296875 -101.664062 90.171875 -105.09375 C 84.054688 -108.519531 76.914062 -110.234375 68.75 -110.234375 C 61.894531 -110.234375 55.832031 -108.945312 50.5625 -106.375 C 45.300781 -103.8125 41.285156 -99.894531 38.515625 -94.625 L 38.515625 -107.859375 L 10.859375 -107.859375 Z M 10.859375 0 "/></g></g></g><g fill="#000000" fill-opacity="1"><g transform="translate(1322.691029, 433.160414)"><g><path d="M 13.03125 0 L 43.65625 0 L 43.65625 -53.34375 L 65.390625 -53.34375 L 95.21875 0 L 129.59375 0 L 96.015625 -58.671875 C 103.773438 -62.222656 109.957031 -67.519531 114.5625 -74.5625 C 119.175781 -81.613281 121.484375 -90.144531 121.484375 -100.15625 C 121.484375 -110.425781 119.242188 -119.050781 114.765625 -126.03125 C 110.296875 -133.007812 104.140625 -138.273438 96.296875 -141.828125 C 88.460938 -145.390625 79.476562 -147.171875 69.34375 -147.171875 L 13.03125 -147.171875 Z M 43.65625 -80 L 43.65625 -120.5 L 69.53125 -120.5 C 75.988281 -120.5 81.160156 -118.65625 85.046875 -114.96875 C 88.929688 -111.28125 90.875 -106.34375 90.875 -100.15625 C 90.875 -94.09375 88.929688 -89.21875 85.046875 -85.53125 C 81.160156 -81.84375 75.988281 -80 69.53125 -80 Z M 43.65625 -80 "/></g></g></g><g fill="#000000" fill-opacity="1"><g transform="translate(1454.453424, 433.160414)"><g><path d="M 49.578125 2.375 C 56.429688 2.375 62.488281 1.09375 67.75 -1.46875 C 73.019531 -4.039062 77.039062 -7.960938 79.8125 -13.234375 L 79.8125 0 L 107.46875 0 L 107.46875 -107.859375 L 77.828125 -107.859375 L 77.828125 -44.84375 C 77.828125 -38.65625 75.984375 -33.679688 72.296875 -29.921875 C 68.609375 -26.171875 63.867188 -24.296875 58.078125 -24.296875 C 52.285156 -24.296875 47.546875 -26.171875 43.859375 -29.921875 C 40.171875 -33.679688 38.328125 -38.65625 38.328125 -44.84375 L 38.328125 -107.859375 L 8.6875 -107.859375 L 8.6875 -42.46875 C 8.6875 -29.039062 12.207031 -18.207031 19.25 -9.96875 C 26.300781 -1.738281 36.410156 2.375 49.578125 2.375 Z M 49.578125 2.375 "/></g></g></g><g fill="#000000" fill-opacity="1"><g transform="translate(1572.782781, 433.160414)"><g><path d="M 10.859375 0 L 40.5 0 L 40.5 -149.546875 L 10.859375 -149.546875 Z M 10.859375 0 "/></g></g></g><g fill="#000000" fill-opacity="1"><g transform="translate(1624.144447, 433.160414)"><g><path d="M 62.8125 2.375 C 73.875 2.375 83.554688 -0.0234375 91.859375 -4.828125 C 100.160156 -9.640625 105.957031 -16 109.25 -23.90625 L 85.53125 -35.15625 C 83.425781 -31.46875 80.492188 -28.570312 76.734375 -26.46875 C 72.984375 -24.363281 68.476562 -23.3125 63.21875 -23.3125 C 55.96875 -23.3125 50.035156 -25.351562 45.421875 -29.4375 C 40.816406 -33.519531 38.125 -38.921875 37.34375 -45.640625 L 112.796875 -45.640625 C 113.328125 -47.085938 113.691406 -48.832031 113.890625 -50.875 C 114.085938 -52.914062 114.1875 -54.988281 114.1875 -57.09375 C 114.1875 -67.101562 112.109375 -76.09375 107.953125 -84.0625 C 103.804688 -92.03125 97.78125 -98.382812 89.875 -103.125 C 81.976562 -107.863281 72.300781 -110.234375 60.84375 -110.234375 C 50.570312 -110.234375 41.351562 -107.796875 33.1875 -102.921875 C 25.019531 -98.046875 18.53125 -91.394531 13.71875 -82.96875 C 8.914062 -74.539062 6.515625 -64.925781 6.515625 -54.125 C 6.515625 -43.71875 8.816406 -34.234375 13.421875 -25.671875 C 18.035156 -17.117188 24.554688 -10.304688 32.984375 -5.234375 C 41.421875 -0.160156 51.363281 2.375 62.8125 2.375 Z M 60.84375 -86.53125 C 66.90625 -86.53125 71.910156 -84.75 75.859375 -81.1875 C 79.804688 -77.632812 82.109375 -73.023438 82.765625 -67.359375 L 37.921875 -67.359375 C 39.378906 -73.546875 42.113281 -78.285156 46.125 -81.578125 C 50.144531 -84.878906 55.050781 -86.53125 60.84375 -86.53125 Z M 60.84375 -86.53125 "/></g></g></g><g fill="#000000" fill-opacity="1"><g transform="translate(1744.844287, 433.160414)"><g><path d="M 53.140625 2.375 C 65.648438 2.375 75.722656 -0.71875 83.359375 -6.90625 C 91.003906 -13.101562 94.828125 -21.207031 94.828125 -31.21875 C 94.828125 -38.988281 92.453125 -45.539062 87.703125 -50.875 C 82.960938 -56.207031 76.117188 -60.1875 67.171875 -62.8125 L 49.984375 -67.953125 C 42.210938 -70.191406 38.328125 -73.421875 38.328125 -77.640625 C 38.328125 -80.398438 39.410156 -82.570312 41.578125 -84.15625 C 43.753906 -85.738281 46.753906 -86.53125 50.578125 -86.53125 C 55.835938 -86.53125 60.539062 -85.175781 64.6875 -82.46875 C 68.84375 -79.769531 71.710938 -76.179688 73.296875 -71.703125 L 95.21875 -81.984375 C 91.925781 -90.941406 86.296875 -97.890625 78.328125 -102.828125 C 70.359375 -107.765625 61.109375 -110.234375 50.578125 -110.234375 C 42.535156 -110.234375 35.421875 -108.816406 29.234375 -105.984375 C 23.046875 -103.148438 18.238281 -99.226562 14.8125 -94.21875 C 11.394531 -89.21875 9.6875 -83.359375 9.6875 -76.640625 C 9.6875 -69.003906 12.054688 -62.390625 16.796875 -56.796875 C 21.535156 -51.203125 28.316406 -47.148438 37.140625 -44.640625 L 55.515625 -39.515625 C 62.617188 -37.535156 66.171875 -34.375 66.171875 -30.03125 C 66.171875 -23.570312 61.828125 -20.34375 53.140625 -20.34375 C 47.347656 -20.34375 42.078125 -21.988281 37.328125 -25.28125 C 32.585938 -28.570312 28.835938 -33.117188 26.078125 -38.921875 L 4.34375 -28.640625 C 7.507812 -19.160156 13.46875 -11.617188 22.21875 -6.015625 C 30.976562 -0.421875 41.285156 2.375 53.140625 2.375 Z M 53.140625 2.375 "/></g></g></g><g clip-path="url(#8bbe2fe9d6)"><g clip-path="url(#86a55cd97f)"><g clip-path="url(#ce56326d10)"><g clip-path="url(#b4b4a65e4d)"><path stroke-linecap="butt" transform="matrix(0.647944, 0.377715, -0.377715, 0.647944, 283.145036, 227.921932)" fill="none" stroke-linejoin="miter" d="M 282.653485 121.452527 L 211.990474 242.905095 L 70.667002 242.906871 L -0.000582449 121.454202 L 70.662428 0.00163456 L 211.993023 0.00173536 Z M 282.653485 121.452527 " stroke="#5a25e7" stroke-width="88" stroke-opacity="1" stroke-miterlimit="4"/></g></g></g></g></svg>